<?xml version="1.0" encoding="utf-8"?>
<!-- Generator: Adobe Illustrator 27.2.0, SVG Export Plug-In . SVG Version: 6.00 Build 0)  -->
<svg version="1.1" id="Layer_1" xmlns="http://www.w3.org/2000/svg" xmlns:xlink="http://www.w3.org/1999/xlink" x="0px" y="0px"
	 viewBox="0 0 108.8 40.3" style="enable-background:new 0 0 108.8 40.3;" xml:space="preserve">
<style type="text/css">
	.st0{fill:#ECA820;}
	.st1{fill:#006EB6;}
</style>
<g>
	<g>
		<rect x="21.1" y="23" class="st0" width="1.3" height="6.7"/>
		<rect x="19.3" y="24.8" class="st0" width="1.3" height="4.9"/>
		<rect x="17.4" y="27.2" class="st0" width="1.3" height="2.6"/>
		<g>
			<g>
				<rect x="12.5" y="11.4" class="st0" width="5.8" height="5.8"/>
				<rect x="9.5" y="17.8" class="st1" width="2.4" height="2.4"/>
				<rect x="4.4" y="11.9" class="st1" width="4.8" height="4.8"/>
				<rect x="10.8" y="7.1" class="st0" width="3.4" height="3.4"/>
				<rect x="6.8" y="7.8" class="st0" width="2.5" height="2.5"/>
				<rect x="8.1" y="3.6" class="st1" width="2.7" height="2.8"/>
				<rect x="16.6" y="4" class="st1" width="3.1" height="3.1"/>
			</g>
			<path class="st1" d="M22,7.6h-7v2h7c0.9,0,1.6,0.7,1.8,1.7c0,0.1,0,0.3,0,0.4v16.3c0,1.2-0.8,2.2-1.8,2.2H9.9c-1,0-1.8-1-1.8-2.2
				V17.9h-2v10.2v4.5c0,2.3,1.7,4.2,3.8,4.2H22c2.1,0,3.8-1.9,3.8-4.2v-4.5V11.8C25.8,9.5,24.1,7.6,22,7.6z M12.4,34.2H9.2v-0.7h3.2
				V34.2z M15.9,35.3c-0.9,0-1.7-0.7-1.7-1.5c0-0.8,0.8-1.5,1.7-1.5c0.9,0,1.7,0.7,1.7,1.5C17.6,34.6,16.9,35.3,15.9,35.3z
				 M22.7,34.2h-3.2v-0.7h3.2V34.2z"/>
		</g>
	</g>
	<g>
		<g>
			<path class="st0" d="M31.7,12c0-0.3,0.2-0.4,0.7-0.4h0.6c0.4,0,0.6,0.1,0.8,0.4l2.1,4.2l2.2-4.2c0.1-0.3,0.4-0.4,0.8-0.4h0.6
				c0.5,0,0.7,0.1,0.7,0.4v8.5c0,0.3-0.2,0.4-0.7,0.4h-0.4c-0.5,0-0.7-0.1-0.7-0.4V15l0,0l-1.8,3.5c-0.1,0.2-0.3,0.3-0.5,0.3h-0.4
				c-0.2,0-0.4-0.1-0.5-0.3L33.5,15l0,0v5.5c0,0.3-0.2,0.4-0.7,0.4h-0.4c-0.5,0-0.7-0.1-0.7-0.4V12z"/>
			<path class="st0" d="M44.5,13.9c1.9,0,2.9,1.3,2.9,3.6c0,2.3-1,3.6-2.9,3.6c-1.9,0-2.9-1.3-2.9-3.6
				C41.6,15.1,42.6,13.9,44.5,13.9z M45.6,17.4c0-1.3-0.3-2-1.1-2c-0.8,0-1.1,0.7-1.1,2c0,1.3,0.4,2,1.1,2
				C45.3,19.5,45.6,18.8,45.6,17.4z"/>
			<path class="st0" d="M48.8,11.3c0-0.3,0.2-0.4,0.7-0.4h0.3c0.5,0,0.7,0.1,0.7,0.4v3c0.3-0.2,0.7-0.4,1.2-0.4
				c1.6,0,2.6,1.4,2.6,3.6c0,2.3-1,3.6-2.3,3.6c-0.8,0-1.3-0.4-1.6-1l-0.1,0.6C50.3,20.9,50,21,49.6,21h-0.1c-0.5,0-0.7-0.1-0.7-0.4
				V11.3z M51.6,19.4c0.7,0,1-0.7,1-2c0-1.3-0.4-2-1.1-2c-0.4,0-0.7,0.1-0.8,0.3v3C50.8,19.1,51.1,19.4,51.6,19.4z"/>
			<path class="st1" d="M55.6,12.4v-1.1c0-0.3,0.2-0.4,0.7-0.4h0.3c0.5,0,0.7,0.1,0.7,0.4v1.1c0,0.3-0.2,0.4-0.7,0.4h-0.3
				C55.8,12.8,55.6,12.7,55.6,12.4z"/>
			<path class="st0" d="M55.6,14.4c0-0.3,0.2-0.4,0.7-0.4h0.3c0.5,0,0.7,0.1,0.7,0.4v6.2c0,0.3-0.2,0.4-0.7,0.4h-0.3
				c-0.5,0-0.7-0.1-0.7-0.4V14.4z"/>
			<path class="st0" d="M58.8,11.3c0-0.3,0.2-0.4,0.7-0.4h0.3c0.5,0,0.7,0.1,0.7,0.4v7.6c0,0.4,0.1,0.6,0.4,0.6
				c0.1,0,0.3-0.1,0.3-0.1c0.2,0,0.4,0.9,0.4,1c0,0.6-0.8,0.7-1.2,0.7c-1.1,0-1.8-0.7-1.8-2.2V11.3z"/>
			<path class="st0" d="M65.1,13.9c1.9,0,2.6,1.6,2.6,3.4c0,0.2-0.5,0.8-0.6,0.8H64c0.1,1.1,0.6,1.4,1.4,1.4c0.8,0,1.3-0.4,1.5-0.4
				c0.3,0,0.6,0.7,0.6,1c0,0.7-1.5,1-2.2,1c-2.2,0-3.2-1.4-3.2-3.5C62.2,14.9,63.4,13.9,65.1,13.9z M66,16.8c0-0.8-0.3-1.3-0.9-1.3
				c-0.5,0-0.9,0.3-1.1,1.3H66z"/>
			<path class="st1" d="M72,19.3c0.2,0,0.8,0.7,2.1,0.7c0.9,0,1.6-0.6,1.6-1.6c0-2.3-3.9-1.3-3.9-4.4c0-1.5,1.1-2.5,2.7-2.5
				c0.7,0,2,0.3,2,0.8c0,0.2-0.3,0.7-0.4,0.7c-0.2,0-0.6-0.5-1.6-0.5c-0.9,0-1.6,0.5-1.6,1.5c0,1.9,3.9,1.1,3.9,4.4
				c0,1.6-1.1,2.6-2.7,2.6c-1.4,0-2.5-0.6-2.5-1C71.6,19.8,71.9,19.3,72,19.3z"/>
			<path class="st1" d="M78.5,14.9h-0.6c-0.2,0-0.2-0.1-0.2-0.4v-0.2c0-0.3,0.1-0.4,0.2-0.4h0.6l0.1-1.4c0-0.2,0.1-0.3,0.4-0.3h0.1
				c0.3,0,0.4,0.1,0.4,0.3V14h1c0.2,0,0.2,0.1,0.2,0.4v0.2c0,0.3-0.1,0.4-0.2,0.4h-1v4.1c0,0.8,0.3,1,0.7,1c0.4,0,0.4-0.1,0.5-0.1
				c0.2,0,0.3,0.5,0.3,0.6c0,0.4-0.6,0.4-0.9,0.4c-0.6,0-1.6-0.3-1.6-1.8V14.9z"/>
			<path class="st1" d="M82.2,14.2c0-0.2,0.1-0.3,0.5-0.3h0c0.3,0,0.5,0.1,0.5,0.3v4.5c0,0.8,0.4,1.3,1.2,1.3c0.5,0,1.1-0.4,1.5-0.9
				v-4.9c0-0.2,0.1-0.3,0.5-0.3h0c0.3,0,0.5,0.1,0.5,0.3V19c0,1.1,0.1,1.6,0.1,1.7c0,0.3-0.5,0.3-0.7,0.3c-0.3,0-0.4-0.6-0.4-0.9
				c-0.5,0.6-1.2,1-1.9,1c-1.2,0-2-0.8-2-2.2V14.2z"/>
			<path class="st1" d="M88.7,17.5v-0.1c0-2.2,1-3.5,2.5-3.5c0.8,0,1.3,0.3,1.7,0.7v-3.4c0-0.2,0.1-0.3,0.5-0.3h0
				c0.3,0,0.5,0.1,0.5,0.3V19c0,1.1,0.1,1.6,0.1,1.7c0,0.3-0.5,0.3-0.7,0.3c-0.3,0-0.4-0.6-0.4-0.9c-0.6,0.7-1.2,1-1.9,1
				C89.6,21,88.7,19.5,88.7,17.5z M92.9,19.1v-3.7c-0.4-0.4-0.9-0.6-1.5-0.6h-0.1c-1,0-1.6,0.9-1.6,2.5c0,1.7,0.5,2.7,1.5,2.7
				C91.8,20,92.4,19.7,92.9,19.1z"/>
			<path class="st0" d="M96,12v-0.8c0-0.2,0.1-0.3,0.5-0.3h0.1c0.3,0,0.5,0.1,0.5,0.3V12c0,0.2-0.1,0.3-0.5,0.3h-0.1
				C96.1,12.3,96,12.2,96,12z"/>
			<path class="st1" d="M96,14.2c0-0.2,0.1-0.3,0.5-0.3h0c0.3,0,0.5,0.1,0.5,0.3v6.4c0,0.2-0.1,0.3-0.5,0.3h0
				c-0.3,0-0.5-0.1-0.5-0.3V14.2z"/>
			<path class="st1" d="M101.6,13.9c1.8,0,2.8,1.3,2.8,3.6c0,2.3-0.9,3.5-2.8,3.5c-1.8,0-2.8-1.2-2.8-3.5
				C98.8,15.2,99.8,13.9,101.6,13.9z M103.3,17.5c0-1.8-0.5-2.6-1.7-2.6c-1.2,0-1.7,0.8-1.7,2.6c0,1.8,0.5,2.6,1.7,2.6
				S103.3,19.2,103.3,17.5z"/>
		</g>
		<g>
			<path class="st1" d="M35.8,22.4c0.7,0,1.3,0.3,1.3,0.5c0,0.1-0.1,0.4-0.2,0.4c-0.1,0-0.4-0.3-1.1-0.3c-1.1,0-1.7,0.6-1.7,2.2
				c0,1.5,0.5,2.2,1.6,2.2c0.7,0,1.1-0.4,1.2-0.4c0.1,0,0.2,0.3,0.2,0.4c0,0.2-0.6,0.6-1.5,0.6c-1.5,0-2.3-0.9-2.3-2.8
				C33.5,23.3,34.3,22.4,35.8,22.4z"/>
			<path class="st1" d="M40.9,23.7c1,0,1.6,0.7,1.6,2.1c0,1.3-0.5,2-1.6,2c-1.1,0-1.6-0.7-1.6-2C39.2,24.5,39.8,23.7,40.9,23.7z
				 M41.9,25.8c0-1-0.3-1.5-1-1.5c-0.7,0-1,0.5-1,1.5c0,1,0.3,1.5,1,1.5C41.5,27.3,41.9,26.8,41.9,25.8z"/>
			<path class="st1" d="M44.9,25c0-0.6-0.1-0.9-0.1-1c0-0.1,0.3-0.2,0.4-0.2c0.2,0,0.2,0.3,0.2,0.5c0.2-0.3,0.6-0.6,1.1-0.6
				c0.3,0,0.8,0.1,1,0.6c0.3-0.3,0.7-0.6,1.1-0.6c0.4,0,1.1,0.2,1.1,1.3v2.7c0,0.1-0.1,0.2-0.3,0.2h0c-0.2,0-0.3-0.1-0.3-0.2v-2.6
				c0-0.5-0.2-0.7-0.7-0.7c-0.4,0-0.8,0.4-0.9,0.5c0,0.1,0,0.1,0,0.2v2.7c0,0.1-0.1,0.2-0.3,0.2h0c-0.2,0-0.3-0.1-0.3-0.2v-2.6
				c0-0.5-0.2-0.7-0.7-0.7c-0.5,0-0.9,0.5-0.9,0.5v2.8c0,0.1-0.1,0.2-0.3,0.2h0c-0.2,0-0.3-0.1-0.3-0.2V25z"/>
			<path class="st1" d="M52.8,29.3c0,0.1-0.1,0.2-0.3,0.2h0c-0.2,0-0.3-0.1-0.3-0.2V25c0-0.6-0.1-0.9-0.1-1c0-0.1,0.3-0.2,0.4-0.2
				c0.2,0,0.2,0.3,0.2,0.5c0.3-0.4,0.7-0.6,1.1-0.6c0.8,0,1.4,0.9,1.4,2v0.1c0,1.3-0.6,2-1.4,2c-0.4,0-0.7-0.2-1-0.4V29.3z
				 M53.7,27.3L53.7,27.3c0.6,0,1-0.5,1-1.4c0-1-0.3-1.6-0.9-1.6c-0.3,0-0.7,0.2-0.9,0.5V27C53.1,27.2,53.4,27.3,53.7,27.3z"/>
			<path class="st1" d="M59.7,25.3v-0.4c0-0.3-0.2-0.6-0.8-0.6c-0.6,0-1,0.3-1.1,0.3c-0.1,0-0.2-0.3-0.2-0.4c0-0.2,0.6-0.5,1.3-0.5
				c0.9,0,1.4,0.4,1.4,1.2v1.7c0,0.6,0.1,0.9,0.1,1c0,0.1-0.3,0.2-0.4,0.2c-0.2,0-0.2-0.3-0.2-0.5c-0.3,0.3-0.7,0.6-1.2,0.6
				c-0.7,0-1.2-0.4-1.2-1.2C57.4,25.4,58.7,25.3,59.7,25.3z M58.6,27.3c0.5,0,0.8-0.3,1.1-0.5v-0.9c-0.7,0-1.7,0-1.7,0.8
				C58,27.1,58.2,27.3,58.6,27.3z"/>
			<path class="st1" d="M62.9,25c0-0.6-0.1-0.9-0.1-1c0-0.1,0.3-0.2,0.4-0.2c0.2,0,0.2,0.3,0.2,0.5c0.3-0.4,0.7-0.6,1.1-0.6
				c0.7,0,1.1,0.5,1.1,1.3v2.7c0,0.1-0.1,0.2-0.3,0.2h0c-0.2,0-0.3-0.1-0.3-0.2v-2.6c0-0.5-0.3-0.7-0.7-0.7c-0.3,0-0.7,0.2-0.9,0.5
				v2.8c0,0.1-0.1,0.2-0.3,0.2h0c-0.2,0-0.3-0.1-0.3-0.2V25z"/>
			<path class="st1" d="M67.8,24c0,0,0-0.1,0-0.1c0-0.1,0.1-0.1,0.3-0.1h0.1c0.1,0,0.2,0,0.3,0.1l1,2.8l0.9-2.8
				c0-0.1,0.1-0.1,0.3-0.1c0.2,0,0.3,0,0.3,0.1c0,0,0,0.1,0,0.1L69,29.3c0,0.1-0.2,0.2-0.3,0.2h-0.1c-0.2,0-0.2,0-0.2-0.1
				c0,0,0-0.1,0.6-1.7L67.8,24z"/>
			<path class="st0" d="M76,27c0,0,0.3,0.3,0.8,0.3c0.4,0,0.7-0.2,0.7-0.7c0-0.4-0.2-0.6-0.7-0.7c-0.7-0.2-1-0.5-1-1
				c0-0.7,0.5-1.1,1.2-1.1c0.5,0,0.9,0.2,0.9,0.3c0,0.1-0.1,0.4-0.2,0.4c0,0-0.3-0.2-0.6-0.2c-0.4,0-0.6,0.2-0.6,0.5
				c0,0.3,0.1,0.4,0.5,0.5c0.9,0.3,1.1,0.6,1.1,1.3c0,0.7-0.5,1.2-1.2,1.2c-0.6,0-1.2-0.3-1.2-0.5C75.7,27.3,75.9,27,76,27z"/>
			<path class="st0" d="M80.4,22.2c0-0.1,0.1-0.2,0.3-0.2h0c0.2,0,0.3,0.1,0.3,0.2v4.6c0,0.5,0.2,0.6,0.4,0.6c0.2,0,0.2,0,0.3,0
				c0.1,0,0.1,0.3,0.1,0.4c0,0.2-0.3,0.2-0.5,0.2c-0.4,0-0.9-0.2-0.9-1.1V22.2z"/>
			<path class="st0" d="M85.3,23.7c1,0,1.6,0.7,1.6,2.1c0,1.3-0.5,2-1.6,2c-1.1,0-1.6-0.7-1.6-2C83.7,24.5,84.3,23.7,85.3,23.7z
				 M86.3,25.8c0-1-0.3-1.5-1-1.5c-0.7,0-1,0.5-1,1.5c0,1,0.3,1.5,1,1.5C86,27.3,86.3,26.8,86.3,25.8z"/>
			<path class="st0" d="M89.7,27.5c-0.3-0.1-0.4-0.3-0.4-0.6c0-0.4,0.3-0.6,0.5-0.7c-0.4-0.2-0.6-0.7-0.6-1.2c0-0.7,0.5-1.3,1.4-1.3
				c0.2,0,0.3,0,0.5,0h1.2c0.1,0,0.1,0.1,0.1,0.2v0.1c0,0.2,0,0.2-0.1,0.2h-0.5c0.2,0.2,0.2,0.5,0.2,0.7c0,0.7-0.5,1.3-1.4,1.3h-0.1
				c-0.2,0-0.6,0-0.6,0.3c0,0.6,2.4,0,2.4,1.5c0,0.7-0.6,1.2-1.8,1.2c-0.9,0-1.6-0.2-1.6-1C88.9,28,89.3,27.7,89.7,27.5z M90.6,28.9
				c0.6,0,1.1-0.3,1.1-0.6c0-0.5-0.7-0.5-1.4-0.6c-0.3,0.1-0.7,0.4-0.7,0.7C89.5,28.8,90,28.9,90.6,28.9z M91.4,25.1
				c0-0.6-0.4-0.8-0.8-0.8s-0.8,0.2-0.8,0.8c0,0.6,0.4,0.8,0.8,0.8S91.4,25.7,91.4,25.1z"/>
			<path class="st0" d="M96.6,25.3v-0.4c0-0.3-0.2-0.6-0.8-0.6c-0.6,0-1,0.3-1.1,0.3c-0.1,0-0.2-0.3-0.2-0.4c0-0.2,0.6-0.5,1.3-0.5
				c0.9,0,1.4,0.4,1.4,1.2v1.7c0,0.6,0.1,0.9,0.1,1c0,0.1-0.3,0.2-0.4,0.2c-0.2,0-0.2-0.3-0.2-0.5c-0.3,0.3-0.7,0.6-1.2,0.6
				c-0.7,0-1.2-0.4-1.2-1.2C94.3,25.4,95.5,25.3,96.6,25.3z M95.5,27.3c0.5,0,0.8-0.3,1.1-0.5v-0.9c-0.7,0-1.7,0-1.7,0.8
				C94.9,27.1,95.1,27.3,95.5,27.3z"/>
			<path class="st0" d="M99.8,25c0-0.6-0.1-0.9-0.1-1c0-0.1,0.3-0.2,0.4-0.2c0.2,0,0.2,0.3,0.2,0.5c0.3-0.4,0.7-0.6,1.1-0.6
				c0.7,0,1.1,0.5,1.1,1.3v2.7c0,0.1-0.1,0.2-0.3,0.2h0c-0.2,0-0.3-0.1-0.3-0.2v-2.6c0-0.5-0.3-0.7-0.7-0.7c-0.3,0-0.7,0.2-0.9,0.5
				v2.8c0,0.1-0.1,0.2-0.3,0.2h0c-0.2,0-0.3-0.1-0.3-0.2V25z"/>
		</g>
	</g>
</g>
</svg>
